<svg version="1.0" xmlns="http://www.w3.org/2000/svg"
 width="90px" height="70px" viewBox="0 0 900.000000 900.000000"
 preserveAspectRatio="xMidYMid meet">
 <metadata>
 </metadata>
 <g transform="translate(0.000000,900.000000) scale(0.100000,-0.100000)"
 fill="#FF7F50" stroke="none">
<path d="M4170 8286 c-14 -7 -41 -20 -60 -29 -375 -166 -683 -426 -861 -727
-42 -72 -56 -100 -91 -180 -29 -68 -64 -178 -77 -245 -4 -22 -13 -58 -19 -80
-48 -181 -67 -473 -47 -725 8 -102 19 -201 25 -220 5 -19 10 -49 10 -66 0 -17
7 -48 15 -67 8 -20 15 -48 15 -62 0 -14 7 -40 16 -56 15 -30 15 -31 -43 -117
-32 -47 -61 -93 -66 -101 -4 -9 -16 -29 -26 -46 -47 -73 -151 -293 -196 -415
-7 -19 -20 -53 -28 -75 -14 -37 -32 -96 -63 -205 -22 -79 -34 -133 -44 -196
-5 -34 -14 -74 -20 -88 -5 -15 -10 -46 -10 -69 0 -23 -7 -80 -15 -127 -11 -60
-15 -157 -15 -330 0 -236 8 -343 42 -525 6 -33 14 -80 18 -105 10 -66 28 -135
75 -295 16 -57 23 -75 61 -177 44 -118 178 -400 225 -473 10 -16 22 -37 26
-45 18 -39 169 -254 235 -335 186 -231 380 -417 608 -583 69 -50 133 -99 143
-108 20 -17 18 -43 -7 -99 -8 -16 -22 -50 -31 -75 -9 -25 -23 -58 -31 -73 -8
-16 -14 -35 -14 -42 0 -7 -6 -26 -14 -42 -8 -15 -22 -47 -30 -70 -9 -24 -23
-62 -32 -85 -8 -24 -22 -56 -30 -71 -8 -16 -14 -36 -14 -46 0 -9 -4 -21 -9
-27 -13 -13 -40 -92 -33 -99 10 -10 311 -5 339 6 15 6 51 14 78 19 28 4 73 13
100 20 28 6 75 18 105 25 30 7 78 19 105 25 28 7 68 16 90 20 38 7 66 13 180
41 28 6 68 15 90 19 22 4 63 13 90 20 28 6 75 18 105 25 30 7 78 19 105 25 28
7 70 16 95 21 58 10 132 27 305 69 28 7 68 16 90 20 22 4 61 12 88 19 26 6 68
16 95 22 26 7 65 15 87 19 22 4 63 13 90 20 28 6 75 18 105 25 30 7 78 19 105
25 28 7 70 16 95 20 58 10 110 29 110 42 0 6 -13 27 -30 48 -16 21 -30 41 -30
44 0 4 -5 12 -10 19 -12 13 -86 118 -140 197 -19 29 -60 86 -90 129 -30 42
-59 85 -65 93 -20 34 -91 135 -132 190 -24 31 -43 59 -43 63 0 3 -5 11 -10 18
-13 15 -72 98 -130 183 -25 36 -70 101 -100 143 -30 43 -59 85 -65 93 -20 32
-90 134 -131 188 -22 30 -43 60 -45 66 -2 6 -23 37 -47 70 -49 68 -113 159
-192 275 -30 44 -78 110 -105 147 l-51 67 -107 3 c-61 1 -115 -2 -127 -8 -10
-6 -24 -28 -30 -50 -6 -21 -15 -42 -20 -45 -6 -3 -10 -15 -10 -27 0 -11 -6
-32 -14 -46 -13 -25 -24 -52 -62 -154 -8 -24 -22 -56 -30 -71 -8 -16 -14 -37
-14 -47 0 -10 -4 -22 -10 -25 -5 -3 -14 -23 -20 -44 -6 -22 -18 -49 -28 -60
-17 -22 -17 -22 -93 51 -124 118 -285 317 -332 408 -4 8 -16 29 -26 45 -26 40
-121 232 -121 244 0 5 -6 22 -14 38 -29 58 -46 104 -46 124 0 11 -5 30 -12 42
-6 12 -15 40 -19 62 -4 22 -12 58 -18 80 -35 140 -43 222 -43 458 0 227 8 315
37 405 3 8 23 0 62 -27 32 -21 76 -49 98 -61 22 -11 47 -25 55 -29 8 -5 33
-17 55 -26 22 -10 53 -24 68 -31 16 -8 35 -14 42 -14 8 0 29 -6 47 -14 79 -33
199 -46 438 -46 230 0 318 9 415 42 17 5 44 13 60 17 17 5 61 23 100 41 230
108 401 291 488 525 47 126 51 155 50 345 0 120 -4 195 -12 215 -7 17 -16 48
-21 70 -17 78 -77 220 -124 288 -14 21 -26 40 -26 44 0 29 -206 238 -287 290
-98 64 -214 123 -268 136 -11 3 -33 10 -50 16 -152 51 -283 65 -560 58 -276
-8 -385 -22 -483 -63 -18 -8 -41 -14 -52 -14 -10 0 -31 -6 -47 -14 -140 -68
-134 -70 -155 49 -42 243 -1 641 88 853 8 18 14 40 14 48 0 9 6 28 13 42 8 15
21 43 29 62 111 260 266 487 479 705 70 71 125 133 123 137 -9 14 -276 9 -304
-6z m123 -25 c15 -5 11 -10 -22 -24 -23 -10 -45 -16 -51 -12 -18 11 -11 33 13
38 33 6 40 6 60 -2z m-128 -66 c0 -12 -40 -19 -61 -11 -9 3 -12 11 -9 16 8 14
70 9 70 -5z m-105 -40 c11 -13 9 -19 -8 -35 -26 -25 -44 -25 -66 -1 -16 17
-15 19 6 34 29 20 52 21 68 2z m220 11 c0 -1 -10 -14 -22 -28 -42 -47 -83 -94
-105 -124 -79 -101 -123 -164 -123 -174 0 -5 -4 -10 -8 -10 -5 0 -14 -10 -21
-22 -6 -13 -20 -36 -31 -53 -10 -16 -31 -52 -45 -80 -14 -27 -30 -57 -35 -65
-5 -8 -11 -22 -14 -30 -3 -8 -10 -22 -15 -30 -5 -8 -17 -33 -26 -55 -10 -22
-24 -52 -32 -67 -7 -14 -13 -34 -13 -45 0 -10 -7 -27 -15 -37 -8 -11 -15 -30
-15 -42 0 -12 -7 -35 -15 -50 -8 -16 -15 -42 -15 -59 0 -16 -7 -39 -15 -49 -8
-11 -15 -38 -15 -60 0 -23 -7 -59 -15 -81 -20 -57 -21 -575 -1 -637 8 -24 17
-73 20 -109 l6 -66 -57 -49 c-32 -27 -111 -102 -175 -166 -94 -93 -118 -112
-118 -95 0 13 -6 31 -14 42 -7 11 -16 49 -19 84 -3 35 -10 68 -16 74 -6 6 -11
40 -11 76 0 37 -7 111 -15 165 -19 124 -19 214 0 336 8 52 15 123 15 156 0 34
7 78 15 97 8 20 15 54 15 75 0 22 7 56 15 75 8 20 15 47 15 61 0 13 7 37 15
52 8 16 15 40 15 54 0 14 7 34 15 44 8 11 15 30 15 42 0 12 7 27 15 34 8 7 15
17 15 23 0 13 33 79 61 122 10 17 22 37 26 45 19 41 136 185 217 266 113 113
308 260 403 303 11 5 24 15 28 20 3 6 14 11 24 11 10 0 24 7 31 15 11 13 40
21 40 11z m-340 -74 c14 -11 19 -23 15 -35 -9 -21 -19 -21 -50 -1 -20 13 -23
20 -14 35 12 24 21 24 49 1z m-80 -61 c20 -16 22 -21 11 -35 -17 -21 -27 -20
-53 3 -21 21 -19 51 4 51 7 0 24 -9 38 -19z m-81 -61 c25 -21 23 -46 -5 -57
-21 -8 -69 40 -61 61 8 22 37 20 66 -4z m-71 -116 c-15 -16 -19 -15 -47 7 -34
28 -38 44 -13 58 13 8 23 4 47 -19 27 -28 28 -31 13 -46z m-89 -20 c37 -31 38
-36 9 -74 -28 -39 -46 -38 -85 6 l-32 36 32 29 c17 16 35 29 38 29 4 0 21 -12
38 -26z m-82 -184 c-23 -38 -42 -60 -52 -60 -15 0 -75 65 -75 83 0 10 16 35
35 54 l35 35 39 -38 39 -39 -21 -35z m-108 -78 l35 -29 -21 -44 c-28 -59 -48
-76 -68 -59 -8 7 -30 20 -48 29 -38 19 -45 48 -20 79 10 12 26 33 36 47 20 28
29 26 86 -23z m-107 -159 c32 -16 58 -31 58 -35 0 -4 -10 -30 -22 -58 -24 -56
-22 -55 -110 -17 -27 11 -48 24 -48 29 0 19 45 108 54 108 6 0 37 -12 68 -27z
m-82 -160 c64 -23 83 -42 75 -73 -13 -52 -34 -60 -88 -36 -18 8 -41 16 -52 18
-23 4 -33 44 -16 61 6 6 11 19 11 29 0 22 12 23 70 1z m-66 -140 c4 -5 26 -13
48 -18 56 -14 66 -33 47 -87 -12 -33 -21 -42 -35 -40 -11 2 -32 6 -49 8 -82
14 -78 10 -72 69 3 30 8 59 12 65 7 12 38 13 49 3z m31 -191 c44 -8 56 -32 35
-71 -9 -18 -20 -21 -70 -21 -83 0 -90 4 -90 54 0 53 6 59 50 51 19 -4 53 -10
75 -13z m12 -154 c8 -6 13 -25 11 -42 l-3 -31 -82 -3 -83 -3 0 45 c0 26 5 47
13 50 19 9 129 -3 144 -16z m1 -205 l-3 -78 -68 -3 c-42 -2 -74 2 -83 9 -14
12 -21 129 -7 142 3 4 42 7 85 7 l79 0 -3 -77z m-40 -133 l42 0 0 -65 0 -64
-52 6 c-106 11 -113 14 -116 62 -5 65 2 75 46 67 20 -3 56 -6 80 -6z m1695
-15 c20 -8 51 -15 69 -15 18 0 42 -7 52 -15 11 -8 30 -15 42 -15 12 0 37 -8
56 -17 18 -9 45 -22 60 -30 14 -7 33 -13 42 -13 9 0 16 -4 16 -9 0 -5 9 -13
21 -16 19 -6 107 -61 119 -75 3 -3 29 -25 58 -49 83 -68 205 -222 251 -316
116 -234 144 -460 91 -715 -6 -30 -16 -59 -21 -64 -5 -6 -9 -17 -9 -25 0 -21
-58 -137 -101 -201 -44 -65 -154 -174 -224 -222 -45 -30 -158 -89 -210 -109
-212 -80 -507 -86 -715 -13 -179 62 -348 161 -484 284 -22 19 -50 45 -63 56
-24 22 -32 77 -13 89 6 3 10 15 10 27 0 32 117 262 155 304 19 22 35 43 35 47
0 4 8 16 18 27 17 18 19 17 82 -41 134 -123 251 -197 383 -244 70 -25 259 -25
313 -1 121 54 166 90 197 155 39 82 25 225 -32 321 -20 35 -140 150 -155 150
-8 0 -19 6 -25 14 -7 8 -28 16 -49 19 -20 3 -60 10 -89 16 -37 8 -67 9 -110 1
-32 -6 -79 -14 -106 -19 -26 -4 -53 -13 -59 -19 -7 -7 -21 -12 -33 -12 -11 -1
-38 -12 -60 -25 -22 -14 -50 -29 -62 -35 -13 -5 -23 -14 -23 -19 0 -5 -6 -11
-14 -13 -41 -9 -231 -213 -259 -278 -9 -20 -29 -51 -44 -68 -7 -7 -13 -19 -13
-26 0 -6 -18 -49 -40 -94 -22 -44 -40 -84 -40 -88 0 -3 -6 -20 -14 -37 -8 -18
-19 -50 -24 -72 -6 -22 -18 -65 -27 -95 -9 -30 -21 -82 -26 -115 -5 -33 -13
-71 -18 -85 -5 -14 -12 -56 -16 -95 -3 -38 -11 -113 -17 -165 -8 -77 -7 -133
6 -285 10 -105 20 -197 23 -205 3 -8 11 -44 19 -80 34 -174 72 -285 166 -485
21 -46 132 -237 150 -260 19 -23 115 -151 143 -189 38 -53 165 -181 230 -232
28 -21 55 -44 60 -50 17 -18 93 -74 100 -74 4 0 13 -8 20 -17 19 -26 64 -3 71
37 4 16 13 35 20 41 8 6 14 24 14 39 0 15 7 33 15 40 8 7 15 22 15 34 0 12 7
31 15 42 8 10 15 28 15 39 0 11 7 29 15 39 8 11 15 30 15 42 0 12 7 27 15 34
8 7 15 21 15 31 0 18 19 69 46 121 8 14 14 34 14 45 0 10 7 27 15 37 8 11 15
30 15 43 0 28 30 31 37 4 3 -11 11 -22 19 -25 8 -3 14 -10 14 -16 0 -6 15 -31
33 -54 17 -24 39 -54 47 -66 8 -12 20 -28 25 -34 6 -7 15 -19 20 -28 29 -47
97 -144 164 -234 42 -55 82 -109 89 -120 7 -10 34 -49 60 -86 26 -37 67 -97
92 -133 25 -37 51 -73 58 -80 6 -8 12 -18 12 -23 0 -5 14 -28 30 -50 17 -23
30 -44 30 -48 0 -3 19 -31 43 -62 24 -31 46 -65 50 -74 3 -10 11 -18 17 -18 5
0 10 -5 10 -11 0 -9 46 -76 80 -116 5 -7 10 -15 10 -18 0 -4 20 -33 45 -65 25
-32 45 -61 45 -65 0 -5 50 -75 78 -110 4 -5 11 -18 15 -27 3 -10 11 -18 17
-18 5 0 10 -5 10 -11 0 -6 14 -28 30 -49 17 -21 30 -41 30 -45 0 -3 19 -32 43
-63 50 -67 100 -143 95 -146 -20 -13 -65 -26 -89 -26 -16 0 -46 -7 -66 -15
-19 -8 -52 -15 -72 -15 -20 0 -49 -7 -65 -15 -15 -8 -45 -15 -65 -15 -20 0
-49 -7 -65 -15 -15 -8 -44 -15 -62 -15 -19 0 -51 -7 -71 -15 -19 -8 -52 -15
-72 -15 -20 -1 -47 -7 -61 -15 -14 -8 -43 -15 -65 -15 -22 0 -51 -7 -65 -15
-14 -8 -43 -14 -65 -15 -22 0 -53 -7 -69 -15 -15 -8 -45 -15 -65 -15 -20 0
-49 -7 -65 -15 -15 -8 -44 -15 -62 -15 -19 0 -51 -7 -71 -15 -19 -8 -52 -15
-72 -15 -20 -1 -47 -7 -61 -15 -14 -8 -43 -14 -65 -15 -22 0 -53 -7 -69 -15
-15 -8 -44 -15 -62 -15 -19 0 -51 -7 -71 -15 -19 -8 -49 -15 -65 -15 -16 0
-45 -7 -65 -15 -19 -8 -52 -15 -72 -15 -20 -1 -47 -7 -61 -15 -14 -8 -43 -14
-65 -15 -22 0 -53 -7 -69 -15 -15 -8 -44 -15 -63 -15 -19 0 -49 -6 -66 -14
-18 -8 -56 -17 -84 -20 -57 -5 -65 3 -38 38 8 11 15 30 15 42 0 12 7 27 15 34
8 7 15 21 15 31 0 18 19 69 46 121 8 14 14 34 14 45 0 10 7 27 15 37 8 11 15
30 15 42 0 12 7 27 15 34 8 7 15 25 15 41 0 15 4 30 9 33 5 3 12 21 15 40 4
20 13 48 21 63 28 54 20 76 -42 119 -71 48 -216 154 -223 163 -3 3 -25 22 -50
42 -56 45 -291 280 -345 344 -93 111 -118 140 -126 143 -5 2 -9 8 -9 13 0 10
-58 91 -138 194 -59 77 -115 174 -206 360 -67 138 -86 180 -86 193 0 5 -7 23
-15 38 -8 16 -15 36 -15 44 0 9 -4 20 -8 25 -9 10 -37 95 -66 200 -9 33 -21
76 -27 95 -11 38 -23 104 -40 215 -6 39 -15 86 -21 105 -15 52 -22 605 -9 725
19 177 32 259 47 294 8 18 14 44 14 56 0 12 7 39 15 58 8 20 15 47 15 61 0 13
7 37 15 52 8 16 15 41 15 55 0 14 7 34 15 45 8 10 15 31 15 45 0 14 7 34 15
45 8 10 15 29 15 41 0 12 6 34 14 50 8 15 21 44 30 63 41 94 59 130 67 136 5
3 9 16 9 30 0 13 4 24 9 24 5 0 14 12 20 28 6 15 15 34 20 42 5 8 12 22 16 30
8 21 26 50 55 90 14 19 30 42 35 51 91 154 281 353 474 497 82 61 109 79 129
87 31 12 40 17 81 40 24 14 50 25 56 25 7 0 18 7 25 15 7 8 22 15 34 15 12 0
31 7 42 15 10 8 30 15 44 15 14 0 38 7 54 15 15 8 45 15 65 16 20 0 52 6 71
13 54 21 445 21 493 1z m-795 -14 c11 -7 10 -10 -3 -15 -20 -7 -38 1 -30 15 7
11 16 11 33 0z m-100 -30 c11 -6 7 -13 -15 -28 -46 -31 -85 -45 -96 -34 -13
13 -2 41 17 41 7 0 27 7 42 15 34 17 35 17 52 6z m-163 -75 c19 -14 19 -15 1
-35 -27 -30 -46 -27 -46 7 0 44 13 52 45 28z m-590 -81 l0 -40 -55 3 c-72 5
-110 25 -110 58 0 25 0 25 83 22 l82 -3 0 -40z m-12 -98 c33 -9 38 -14 35 -36
-2 -14 -6 -25 -10 -23 -5 1 -39 2 -78 2 -66 0 -70 1 -76 25 -11 45 1 58 49 50
23 -4 59 -12 80 -18z m47 -122 c25 -30 4 -45 -64 -45 -54 0 -69 4 -85 22 -11
11 -18 25 -15 30 10 15 150 10 164 -7z m35 -131 c8 -20 12 -40 9 -45 -3 -5
-39 -9 -79 -9 l-75 0 -15 36 c-8 20 -12 40 -9 45 3 5 39 9 79 9 l75 0 15 -36z
m-15 -123 c0 -11 -78 -129 -91 -136 -11 -8 -129 27 -129 37 0 4 16 30 36 58
l36 50 74 0 c41 0 74 -4 74 -9z m1386 -113 c74 -36 133 -95 166 -167 16 -35
21 -67 22 -138 1 -82 -1 -95 -24 -125 -70 -96 -176 -134 -267 -96 -21 9 -45
19 -53 22 -8 4 -28 15 -45 26 -16 11 -37 23 -45 27 -43 19 -194 153 -231 205
l-20 27 53 52 c85 83 180 141 298 182 63 22 72 21 146 -15z m178 6 c24 -9 19
-21 -13 -32 -23 -8 -32 -7 -42 4 -11 13 -7 16 38 33 1 1 8 -2 17 -5z m-1736
-67 c24 -3 46 -8 49 -10 5 -6 -55 -125 -68 -133 -14 -8 -120 27 -126 42 -3 8
5 30 18 51 36 60 50 73 68 64 9 -5 35 -11 59 -14z m1850 7 c12 -8 22 -23 22
-33 0 -15 -11 -20 -56 -26 -37 -4 -60 -3 -70 5 -23 20 -16 38 16 45 16 4 32
11 35 16 9 13 28 11 53 -7z m80 -106 c7 -7 12 -25 12 -40 0 -28 -1 -28 -64
-28 -80 0 -96 6 -96 36 0 16 7 25 23 28 12 3 31 7 42 9 40 9 71 7 83 -5z
m-2015 -83 c37 -6 38 -7 31 -38 -4 -18 -15 -48 -25 -67 -11 -19 -19 -39 -19
-44 0 -5 -7 -17 -15 -26 -15 -16 -19 -16 -72 2 -32 10 -62 23 -67 28 -10 10
47 138 71 157 10 7 23 9 36 3 12 -5 39 -12 60 -15z m2038 -35 c24 -14 25 -56
1 -69 -18 -10 -112 6 -140 23 -13 8 -16 38 -5 49 10 11 122 8 144 -3z m-12
-125 c9 -9 -27 -60 -45 -63 -9 -2 -26 1 -38 7 -11 6 -33 15 -48 21 -19 6 -28
17 -28 31 0 21 3 22 77 15 42 -3 79 -8 82 -11z m-2137 -62 c58 -22 59 -23 46
-66 -13 -43 -22 -45 -120 -32 -54 7 -58 16 -31 77 19 44 38 48 105 21z m1996
-19 c27 -8 29 -30 3 -44 -22 -11 -51 -3 -68 19 -19 26 14 38 65 25z m-2041
-136 c39 -9 53 -17 53 -30 0 -32 -32 -39 -96 -21 -69 19 -77 24 -68 46 7 20
39 22 111 5z m-7 -108 c16 -4 25 -14 25 -26 0 -16 -7 -19 -50 -18 -79 0 -105
10 -105 40 0 24 1 25 53 18 28 -4 63 -10 77 -14z m-58 -96 c52 -15 58 -19 58
-43 0 -15 -6 -36 -14 -46 -12 -17 -18 -17 -71 -7 -84 17 -96 31 -75 86 11 30
24 32 102 10z m1099 -15 c23 -12 16 -29 -12 -29 -12 0 -19 7 -19 20 0 23 4 24
31 9z m99 -89 c27 -20 24 -23 -38 -34 -35 -6 -82 7 -82 23 0 10 50 29 80 30 8
0 26 -8 40 -19z m-1187 -52 c16 -8 18 -17 12 -51 -4 -23 -10 -62 -13 -87 l-7
-45 -74 2 c-41 1 -79 7 -85 13 -7 7 -6 24 2 55 7 25 12 58 12 74 0 59 7 64 74
56 33 -3 69 -11 79 -17z m1308 -39 c31 -16 12 -29 -41 -29 -48 0 -67 10 -55
30 8 13 71 13 96 -1z m162 -93 c25 -13 58 -26 73 -30 20 -5 24 -10 15 -16 -8
-4 -28 -3 -45 2 -17 5 -49 14 -71 19 -22 6 -51 19 -65 29 l-25 20 37 0 c20 0
57 -11 81 -24z m-1529 -111 c41 -12 41 -12 38 -59 -2 -25 -7 -58 -11 -73 -7
-26 -10 -28 -57 -25 -27 2 -62 5 -77 8 l-29 6 7 76 c4 43 9 80 11 84 5 8 61 0
118 -17z m-19 -213 l40 -7 0 -65 0 -65 -35 1 c-19 0 -56 4 -82 8 l-48 7 0 71
0 71 43 -7 c23 -4 60 -11 82 -14z m33 -191 c9 -5 12 -25 10 -57 l-3 -49 -40
-3 c-22 -2 -59 -1 -82 3 l-43 6 0 55 0 54 73 0 c39 0 78 -4 85 -9z m-15 -167
c28 -6 35 -20 40 -84 2 -34 2 -34 -53 -43 -108 -18 -104 -20 -113 52 -11 89
-7 95 51 87 26 -4 59 -9 75 -12z m60 -253 c4 -35 6 -66 3 -68 -6 -7 -75 -24
-117 -30 -36 -5 -36 -5 -43 39 -3 23 -9 59 -12 80 -7 43 0 47 96 45 l65 -2 8
-64z m24 -137 c9 -23 -30 -50 -89 -62 -50 -10 -68 -2 -68 29 0 14 12 19 48 25
26 3 54 10 62 15 23 13 40 11 47 -7z m33 -145 c0 -15 5 -31 10 -34 6 -3 10
-10 10 -15 0 -14 -79 -48 -120 -52 -31 -3 -35 0 -43 27 -5 17 -13 38 -18 47
-19 37 -7 46 91 74 39 10 47 10 58 -4 6 -9 12 -28 12 -43z m2063 -103 c-3 -34
-30 -68 -52 -62 -9 2 -37 7 -63 11 -46 6 -48 7 -48 40 0 40 9 44 100 42 l65
-2 -2 -29z m-2025 -38 c6 -7 13 -30 17 -51 4 -20 11 -40 16 -43 5 -3 9 -14 9
-24 0 -13 -14 -23 -47 -35 -27 -9 -55 -21 -64 -25 -20 -10 -43 12 -54 50 -3
14 -13 40 -22 58 -17 39 -15 41 40 64 50 20 91 22 105 6z m1940 -75 c35 -14
41 -37 18 -68 -13 -18 -18 -19 -60 -7 -26 6 -57 12 -71 12 -29 0 -31 14 -9 59
15 29 18 31 52 25 21 -4 52 -13 70 -21z m-35 -129 c28 -6 35 -18 17 -29 -5 -3
-10 -14 -10 -23 0 -38 -13 -43 -71 -31 -73 15 -91 32 -77 71 10 29 12 29 62
23 28 -3 63 -8 79 -11z m-1820 -31 c15 -34 15 -38 0 -55 -9 -10 -21 -18 -27
-18 -6 0 -28 -9 -48 -20 -29 -15 -38 -17 -47 -6 -10 12 -41 80 -41 90 0 11 87
45 115 46 26 0 34 -6 48 -37z m1742 -104 c5 -5 17 -9 27 -9 19 0 26 -34 9 -45
-5 -3 -12 -19 -16 -35 -5 -23 -12 -30 -31 -30 -13 0 -32 4 -42 10 -9 5 -30 15
-46 20 -27 10 -28 13 -23 52 3 22 11 45 19 50 15 10 89 1 103 -13z m-1687 -36
c3 -17 -3 -24 -24 -29 -15 -4 -39 -13 -53 -20 -37 -20 -59 -17 -66 7 -8 24
-11 21 45 48 57 26 94 24 98 -6z m42 -90 c28 -36 23 -51 -33 -90 -53 -38 -65
-35 -93 18 -21 42 -17 57 19 64 17 4 41 14 52 21 27 19 30 18 55 -13z m1545
-17 c11 -7 32 -16 48 -20 15 -3 27 -12 27 -19 0 -18 -20 -87 -26 -87 -8 0 -78
46 -101 67 -50 44 -3 97 52 59z m-1454 -152 c21 -32 38 -66 38 -74 1 -16 -81
-60 -109 -60 -15 0 -80 101 -80 125 0 15 89 75 105 71 5 -1 26 -29 46 -62z
m108 -180 c17 -25 31 -49 31 -53 0 -13 -77 -51 -101 -51 -12 0 -27 12 -37 30
-9 16 -20 30 -24 30 -5 0 -8 10 -8 23 0 16 11 28 43 44 23 11 47 22 54 22 6 1
25 -19 42 -45z m88 -127 c26 -30 58 -85 52 -90 -2 -2 -24 -13 -48 -25 -34 -16
-47 -18 -61 -10 -23 15 -71 89 -64 99 5 8 82 48 95 49 3 0 14 -10 26 -23z
m107 -143 c22 -22 66 -80 66 -87 0 -3 -25 -11 -56 -17 -53 -11 -57 -11 -81 12
-46 42 -46 60 1 85 51 27 51 27 70 7z m152 -169 c50 -50 47 -58 -26 -74 -41
-9 -44 -8 -83 29 -35 32 -39 40 -28 53 7 9 22 18 34 20 54 11 71 6 103 -28z
m101 -111 c12 -3 29 -17 37 -29 15 -23 15 -24 -36 -34 -47 -11 -54 -9 -84 11
-42 28 -39 41 12 49 21 3 41 7 44 7 3 1 15 -1 27 -4z m133 -116 c35 -26 32
-34 -21 -48 -33 -9 -44 -8 -69 7 -36 21 -35 44 0 54 43 12 60 10 90 -13z m142
-114 c21 -15 35 -30 32 -35 -3 -5 -30 -9 -60 -9 -41 0 -62 6 -84 22 -37 27
-38 36 -2 41 60 9 77 6 114 -19z m140 -105 c17 -9 18 -13 7 -20 -18 -11 -90
-11 -108 0 -40 25 56 44 101 20z m64 -84 c8 -21 -3 -60 -22 -79 -12 -12 -28
-14 -77 -9 -34 3 -65 11 -69 17 -9 14 0 46 20 69 20 23 140 25 148 2z m-85
-135 c11 0 19 -6 19 -14 0 -12 -12 -13 -57 -9 -73 6 -86 10 -77 24 4 7 23 9
52 5 25 -3 53 -6 63 -6z m2 -90 c5 -4 1 -24 -7 -44 l-16 -37 -57 7 c-93 11
-107 23 -77 70 16 23 20 24 83 18 36 -4 70 -10 74 -14z m-61 -126 c13 -8 9
-41 -6 -57 -12 -11 -26 -12 -73 -4 -70 11 -78 17 -69 53 7 27 7 27 73 20 37
-4 70 -9 75 -12z m-69 -110 c40 -7 48 -26 24 -58 -12 -17 -19 -17 -85 -5 -53
10 -72 17 -72 29 0 37 43 48 133 34z m-9 -125 c5 -4 2 -23 -8 -43 l-17 -36
-74 0 c-73 0 -96 10 -77 33 5 7 12 24 16 39 6 27 6 27 79 21 39 -3 76 -9 81
-14z"/>
<path d="M5070 6200 c-20 -13 -4 -40 38 -61 17 -9 47 -28 66 -43 19 -14 37
-26 41 -26 12 0 97 -97 122 -140 14 -25 29 -47 33 -50 22 -16 58 -120 74 -214
12 -71 20 -83 45 -67 13 8 13 21 3 88 -12 74 -39 163 -55 179 -4 4 -7 17 -7
29 0 13 -7 28 -15 35 -8 7 -15 17 -15 22 0 25 -106 142 -175 193 -83 62 -122
76 -155 55z"/>
<path d="M3024 3685 c-4 -9 -4 -25 -1 -38 3 -12 12 -49 21 -82 22 -91 36 -137
52 -172 8 -17 14 -36 14 -42 0 -6 4 -19 9 -29 6 -9 20 -39 33 -67 40 -89 86
-155 103 -149 23 9 19 24 -28 115 -50 100 -87 188 -87 211 0 9 -4 19 -9 23 -6
3 -13 26 -17 50 -3 25 -10 47 -14 50 -5 3 -11 29 -15 58 -9 68 -46 112 -61 72z"/>
<path d="M3210 3638 c0 -39 46 -229 66 -275 8 -17 14 -37 14 -45 1 -17 35 -58
49 -58 13 0 15 66 2 74 -5 3 -12 23 -16 43 -4 21 -10 43 -15 48 -5 6 -13 35
-20 65 -35 169 -32 160 -57 160 -13 0 -23 -6 -23 -12z"/>
<path d="M5448 1358 c-28 -15 -38 -26 -38 -44 0 -28 25 -43 43 -25 6 6 23 11
38 11 59 0 96 29 83 65 -9 22 -81 18 -126 -7z"/>
<path d="M5145 1270 c-3 -5 -18 -10 -32 -10 -14 0 -39 -6 -56 -14 -18 -8 -45
-16 -62 -19 -16 -3 -43 -9 -60 -15 -46 -16 -115 -32 -174 -42 -29 -5 -58 -13
-64 -19 -6 -6 -29 -11 -51 -12 -80 -1 -163 -51 -125 -75 19 -11 109 -4 148 12
18 8 47 14 63 14 16 0 45 7 65 15 19 8 47 15 62 15 14 0 39 7 55 15 15 8 43
15 60 15 17 0 40 6 51 14 11 7 36 16 55 19 47 7 113 32 118 45 10 31 -37 68
-53 42z"/>
</g>
</svg>
