<?xml version="1.0" standalone="no"?>
<!DOCTYPE svg PUBLIC "-//W3C//DTD SVG 20010904//EN"
 "http://www.w3.org/TR/2001/REC-SVG-20010904/DTD/svg10.dtd">
<svg version="1.0" xmlns="http://www.w3.org/2000/svg"
 width="137.000000px" height="60pt" viewBox="0 0 900.000000 648.000000"
 preserveAspectRatio="xMidYMid meet">
<metadata>
Created by potrace 1.10, written by Peter Selinger 2001-2011
</metadata>
<g transform="translate(0.000000,648.000000) scale(0.100000,-0.100000)"
fill="orange" stroke="none">
<path d="M4475 6340 c-7 -11 21 -70 33 -70 28 0 165 -160 212 -246 11 -21 25
-46 30 -54 48 -81 100 -238 100 -301 0 -25 7 -68 15 -95 11 -36 15 -96 14
-219 -1 -271 -22 -268 -33 5 -6 167 -28 277 -88 450 -56 159 -105 239 -216
354 -94 96 -217 155 -327 156 -198 1 -433 -184 -554 -437 -24 -48 -47 -96 -52
-105 -19 -37 -49 -124 -49 -143 -1 -48 -16 -47 -76 4 -71 61 -160 106 -239
120 -76 14 -81 14 -100 -5 -15 -16 -12 -22 54 -88 69 -70 181 -239 181 -274 1
-21 26 -53 61 -76 26 -16 26 -17 32 -184 8 -244 23 -343 74 -505 14 -45 13
-77 -4 -77 -5 0 -13 10 -18 22 -6 12 -26 33 -45 46 l-35 23 -6 192 c-7 245
-34 417 -76 482 -7 11 -13 26 -13 35 0 43 -112 212 -185 278 -79 73 -190 122
-272 122 -60 0 -145 -26 -207 -62 -67 -40 -180 -156 -237 -243 -59 -90 -149
-280 -149 -313 0 -9 -6 -37 -14 -62 -30 -93 -46 -227 -46 -381 -1 -376 91
-637 287 -821 59 -54 113 -84 203 -109 78 -23 135 -24 232 -5 40 8 105 19 144
24 39 5 83 16 97 23 14 8 47 25 74 38 132 67 253 205 339 389 37 79 42 107 19
116 -8 3 -15 11 -15 18 0 7 -14 33 -30 58 -30 46 -37 74 -21 85 5 3 21 -19 35
-49 14 -30 31 -58 36 -61 6 -3 10 -14 10 -23 0 -24 139 -182 197 -225 99 -72
133 -80 358 -80 168 1 212 4 275 21 152 41 230 81 326 169 67 62 224 274 224
302 0 6 14 35 30 64 17 30 30 61 30 70 0 9 6 31 14 49 15 36 35 108 60 208 34
142 31 560 -5 700 -37 147 -74 255 -110 320 -5 8 -16 30 -26 49 -25 50 -106
149 -163 199 -52 45 -156 102 -188 102 -11 0 -39 7 -62 15 -48 17 -126 20
-135 5z m-174 -160 c62 -20 152 -79 198 -129 47 -52 111 -140 111 -153 0 -7 7
-22 15 -32 8 -11 15 -29 15 -40 0 -11 7 -28 16 -37 22 -24 25 -94 4 -94 -8 0
-16 9 -18 20 -3 18 -52 121 -91 193 -7 14 -43 55 -80 92 -86 87 -179 130 -277
130 -53 -1 -148 -21 -182 -39 -26 -14 -52 -14 -52 -1 0 6 10 15 23 21 12 5 36
17 52 27 41 22 155 61 181 62 12 0 50 -9 85 -20z m-1306 -571 c53 -23 66 -33
143 -104 81 -74 151 -205 110 -205 -7 0 -30 26 -51 58 -57 88 -154 182 -188
182 -8 0 -22 7 -32 15 -30 22 -154 29 -207 11 -24 -8 -46 -13 -48 -11 -10 10
9 36 32 45 13 5 27 14 31 19 12 20 158 13 210 -10z m1726 -16 c5 -15 7 -38 4
-52 -12 -46 -41 9 -36 67 2 22 21 13 32 -15z m-553 -189 c13 -9 37 -34 53 -57
25 -34 29 -49 29 -103 0 -75 -29 -158 -66 -191 -17 -15 -38 -23 -63 -23 -51 0
-76 29 -92 108 -22 106 11 219 77 263 35 23 34 23 62 3z m-876 -169 c2 -12 -3
-21 -14 -23 -13 -3 -18 3 -18 21 0 43 24 45 32 2z m1548 -256 c-7 -31 -8 -29
-8 21 -1 39 2 49 8 34 4 -11 5 -36 0 -55z m-1959 -71 c21 -29 24 -43 24 -120
0 -80 -2 -90 -30 -130 -24 -33 -38 -44 -62 -46 -28 -3 -36 3 -63 39 -26 37
-30 50 -30 111 0 72 10 97 59 151 34 38 71 36 102 -5z"/>
<path d="M7018 5628 c-47 -33 -114 -123 -144 -193 -9 -22 -22 -53 -29 -70 -12
-30 -35 -107 -53 -180 -5 -22 -19 -71 -30 -110 -29 -99 -52 -231 -52 -292 0
-57 23 -93 58 -93 9 0 67 51 127 112 157 161 296 349 381 518 30 60 34 78 34
144 0 73 -1 77 -36 115 -77 86 -176 104 -256 49z"/>
<path d="M6278 5577 c-14 -13 -38 -42 -53 -65 -24 -36 -26 -47 -22 -104 10
-131 67 -314 162 -523 55 -119 108 -136 146 -47 17 39 20 79 26 306 8 332 6
345 -58 407 -49 48 -52 49 -113 49 -52 0 -67 -4 -88 -23z"/>
<path d="M7830 5285 c-133 -75 -188 -110 -283 -182 -260 -195 -537 -480 -537
-551 0 -54 92 -78 180 -47 23 8 56 15 72 15 27 0 67 10 163 42 17 5 44 14 60
18 192 56 267 83 395 144 130 62 222 125 272 189 32 40 33 43 33 143 l0 102
-41 48 c-70 83 -93 94 -198 94 -60 0 -100 -5 -116 -15z"/>
<path d="M5850 4587 c-83 -39 -99 -69 -111 -216 -10 -125 -6 -642 7 -899 8
-159 13 -172 83 -217 35 -21 91 -34 238 -54 34 -5 84 -14 110 -19 152 -33 229
-42 356 -42 125 0 142 2 168 21 66 47 64 28 64 619 0 410 -3 543 -13 571 -15
42 -78 109 -102 109 -8 0 -40 6 -70 13 -112 28 -234 53 -377 76 -28 5 -56 12
-61 15 -12 7 -209 36 -241 35 -14 0 -37 -6 -51 -12z m240 -142 c23 -8 54 -15
69 -15 29 0 150 -24 227 -46 28 -8 59 -14 70 -14 36 0 147 -40 159 -57 20 -27
26 -143 26 -503 1 -248 -2 -342 -12 -362 -7 -16 -16 -28 -20 -28 -9 0 -22 141
-19 212 1 29 2 92 1 140 -2 127 -11 129 -193 49 -99 -44 -138 -63 -144 -72 -3
-5 -16 -9 -30 -9 -13 0 -53 -13 -89 -30 -36 -16 -94 -43 -130 -60 -70 -32 -99
-37 -111 -18 -10 16 51 65 90 74 17 3 42 12 56 19 14 7 41 20 60 28 19 9 67
30 105 47 74 34 115 51 168 74 164 70 225 111 213 141 -11 29 -35 31 -76 6 -8
-5 -35 -17 -60 -26 -25 -10 -73 -30 -107 -46 -35 -16 -65 -29 -68 -29 -2 0
-42 -17 -87 -39 -46 -21 -108 -48 -138 -61 -30 -12 -70 -28 -88 -36 -41 -18
-62 -18 -62 -1 0 20 29 44 85 68 28 11 86 38 130 59 44 20 116 52 160 69 181
73 264 116 292 149 24 29 30 89 13 122 -15 28 -74 60 -110 60 -18 0 -56 7 -84
15 -78 22 -188 45 -215 45 -13 0 -47 6 -75 14 -28 8 -82 22 -121 31 -38 9 -72
18 -74 20 -2 2 -1 12 3 21 6 14 16 16 75 10 37 -3 87 -13 111 -21z"/>
<path d="M5555 4376 c-27 -18 -89 -54 -137 -79 -47 -25 -106 -58 -130 -74 -74
-48 -76 -49 -230 -132 -91 -48 -99 -51 -120 -37 -69 43 -214 58 -304 31 -27
-8 -57 -15 -67 -15 -18 0 -57 -15 -125 -49 -54 -26 -155 -124 -185 -179 -45
-83 -67 -189 -67 -324 0 -83 5 -129 15 -155 8 -19 15 -43 15 -52 0 -39 76
-158 142 -223 60 -58 75 -68 125 -78 58 -12 203 -9 298 8 50 8 170 63 203 92
63 55 79 60 209 70 288 22 381 31 448 43 65 11 70 14 73 39 2 15 -3 39 -11 55
-15 28 -19 119 -32 678 -6 263 -15 386 -27 403 -16 19 -39 14 -93 -22z m13
-134 c3 -16 -14 -31 -80 -72 -127 -78 -266 -160 -274 -160 -2 0 -23 -12 -47
-27 -63 -41 -80 -52 -97 -58 -72 -31 -243 -139 -309 -197 -24 -21 -53 -38 -63
-38 -20 0 -20 0 -1 33 25 41 151 147 220 184 30 15 61 33 71 38 45 27 137 82
161 97 14 9 37 23 51 31 14 7 61 33 105 57 44 24 106 60 138 82 32 21 65 38
72 38 8 0 17 5 20 11 10 16 30 5 33 -19z m-774 -252 c37 -14 32 -33 -13 -58
-52 -29 -158 -144 -181 -196 -10 -22 -25 -72 -34 -111 -16 -67 -16 -72 3 -125
34 -96 48 -124 95 -178 41 -48 120 -110 159 -125 9 -3 21 -15 27 -27 15 -28
-5 -35 -96 -35 -67 0 -75 3 -128 39 -61 42 -115 109 -140 171 -37 97 -42 294
-9 400 21 65 41 103 84 154 44 54 72 72 134 87 64 16 69 16 99 4z"/>
<path d="M7430 4323 c-41 -8 -100 -21 -130 -28 -30 -7 -90 -22 -134 -32 -88
-20 -126 -46 -126 -86 0 -29 34 -56 115 -90 46 -19 199 -67 295 -91 36 -9 86
-23 111 -31 26 -8 57 -15 70 -15 13 0 42 -7 64 -15 62 -22 183 -19 240 6 71
31 122 88 130 143 14 91 -22 177 -86 208 -101 48 -103 48 -292 47 -112 -1
-211 -7 -257 -16z"/>
<path d="M3930 3965 c-30 -8 -68 -14 -84 -15 -16 0 -52 -7 -80 -15 -28 -8 -87
-23 -131 -34 -84 -21 -128 -35 -183 -57 -18 -8 -42 -14 -53 -14 -11 0 -32 -6
-47 -13 -15 -8 -53 -19 -84 -26 -31 -7 -68 -21 -81 -32 -14 -10 -34 -19 -46
-19 -11 0 -38 -6 -58 -14 -21 -7 -65 -21 -98 -31 -33 -10 -76 -23 -95 -30 -19
-7 -64 -21 -100 -31 -36 -9 -72 -23 -81 -31 -8 -7 -21 -13 -27 -13 -7 0 -18
-15 -26 -34 -8 -18 -20 -37 -27 -42 -61 -39 -180 -55 -318 -43 -77 7 -99 6
-127 -7 -38 -18 -80 -69 -107 -127 -21 -46 -22 -136 -2 -163 8 -10 15 -26 15
-35 0 -9 18 -33 40 -53 36 -33 45 -36 99 -36 40 0 63 5 71 15 13 16 48 20 65
7 6 -4 23 -26 39 -50 42 -62 85 -72 156 -38 63 30 76 25 85 -37 7 -52 13 -316
14 -633 l1 -240 32 -24 c29 -21 34 -22 67 -10 20 7 52 17 71 21 19 4 51 13 70
19 19 7 51 18 70 25 77 28 207 69 240 76 19 4 60 17 90 29 30 12 71 25 90 30
19 4 46 12 60 17 14 6 52 18 85 28 33 10 74 23 90 30 38 16 104 38 180 60 33
10 74 23 90 30 101 44 281 60 380 34 22 -6 72 -16 110 -24 86 -16 105 -24 105
-40 0 -20 -101 -55 -260 -91 -41 -9 -84 -21 -95 -27 -11 -6 -36 -14 -55 -18
-19 -4 -48 -12 -65 -17 -63 -22 -111 -36 -145 -43 -19 -4 -48 -12 -65 -17 -16
-6 -57 -18 -90 -27 -33 -10 -71 -21 -84 -27 -14 -5 -43 -13 -65 -18 -23 -4
-66 -18 -96 -30 -30 -12 -75 -26 -100 -31 -25 -5 -70 -18 -100 -30 -103 -38
-155 -51 -241 -58 -76 -6 -92 -11 -141 -43 -51 -35 -101 -57 -173 -78 -16 -5
-52 -16 -80 -24 -27 -8 -63 -19 -80 -25 -16 -5 -57 -17 -90 -27 -33 -9 -75
-23 -93 -30 -18 -8 -40 -14 -50 -14 -9 0 -34 -6 -57 -14 -22 -8 -67 -22 -100
-31 -33 -10 -76 -23 -95 -30 -19 -7 -62 -20 -95 -29 -33 -9 -73 -21 -90 -27
-30 -10 -98 -31 -165 -50 -19 -5 -64 -16 -100 -24 -36 -8 -96 -23 -135 -34
-38 -11 -110 -30 -160 -42 -49 -11 -110 -27 -135 -35 -25 -8 -57 -14 -71 -14
-15 0 -44 -8 -65 -17 -33 -15 -76 -17 -289 -18 -222 0 -256 2 -295 18 -232 96
-320 196 -323 367 -2 101 20 165 74 221 75 77 195 118 286 98 29 -7 58 -18 64
-26 6 -7 17 -13 24 -13 6 0 31 -14 54 -30 42 -31 61 -32 61 -4 0 25 -76 89
-145 122 -57 29 -74 32 -152 32 -126 0 -194 -30 -293 -129 -48 -48 -56 -62
-84 -146 -23 -72 -22 -246 3 -300 57 -127 159 -237 279 -302 42 -24 84 -46 92
-49 8 -3 29 -13 45 -21 26 -13 78 -14 340 -11 303 5 343 9 475 45 30 8 78 15
105 16 l50 2 7 -85 c10 -132 11 -621 1 -655 -10 -33 -62 -64 -122 -71 -34 -5
-73 -14 -211 -50 -75 -19 -238 -34 -378 -34 -252 0 -401 54 -501 182 -58 75
-71 114 -71 213 0 125 33 199 113 253 107 72 277 70 373 -3 36 -28 74 -33 74
-11 0 20 -96 102 -150 129 -34 17 -67 23 -136 25 -83 4 -97 1 -150 -24 -33
-15 -76 -40 -97 -57 -38 -30 -127 -138 -127 -155 0 -5 -7 -23 -15 -38 -21 -42
-20 -224 2 -290 25 -75 52 -111 150 -204 129 -122 214 -161 408 -190 133 -20
206 -23 290 -11 44 7 121 16 170 21 103 11 180 25 245 46 25 8 56 14 69 14 13
0 44 6 70 14 25 8 73 22 106 31 33 8 83 22 110 30 28 7 86 21 130 30 88 18
170 40 228 61 20 8 46 14 57 14 11 0 34 6 52 14 18 7 60 21 93 31 58 17 116
34 200 60 37 12 76 23 208 60 28 8 77 21 107 30 93 27 152 43 220 61 36 9 85
22 110 29 25 8 70 20 100 29 30 8 82 22 115 32 164 46 243 68 325 89 36 9 89
23 118 31 28 8 76 20 105 28 100 27 172 47 222 60 82 23 147 38 200 46 28 5
63 13 78 19 16 6 40 11 54 11 15 0 49 6 77 14 98 28 172 46 271 66 55 11 118
24 140 30 22 5 83 16 135 25 148 24 268 45 355 61 44 8 96 14 115 14 19 0 71
7 115 15 44 8 109 15 145 15 36 0 83 5 105 10 102 24 524 41 1040 43 604 2
713 -6 927 -69 26 -8 55 -14 65 -14 45 0 307 -100 420 -162 110 -59 209 -147
260 -233 54 -90 55 -96 54 -213 -1 -113 -1 -113 -38 -169 -68 -103 -182 -173
-282 -173 -56 0 -93 12 -206 65 -93 45 -125 46 -125 7 0 -37 99 -119 190 -156
25 -10 60 -24 78 -32 102 -44 308 8 414 104 142 128 215 332 187 527 -18 131
-70 236 -173 350 -25 28 -46 57 -46 65 0 8 25 44 56 80 62 73 124 163 124 180
0 6 6 23 14 38 8 15 18 64 24 110 18 151 -15 305 -91 427 -36 58 -250 253
-332 302 -48 28 -281 143 -292 143 -6 0 -24 6 -40 14 -36 18 -88 36 -133 46
-19 4 -48 13 -65 18 -71 25 -328 72 -392 72 -28 0 -74 4 -103 10 -90 17 -375
40 -498 40 -282 0 -947 -58 -1202 -104 -47 -9 -136 -23 -198 -31 -62 -8 -117
-17 -121 -19 -13 -8 -328 -76 -352 -76 -48 0 -57 69 -59 419 l0 113 -32 -5
c-18 -2 -59 -14 -90 -26 -32 -11 -77 -21 -100 -21 -24 0 -61 -5 -82 -11 -43
-12 -133 1 -193 27 -17 8 -35 14 -40 14 -21 0 -173 142 -173 162 0 11 -38 48
-50 48 -6 0 -15 -12 -21 -27 -6 -15 -13 -22 -18 -17 -5 5 -11 178 -14 384 -4
278 -8 383 -18 408 -13 31 -15 32 -69 31 -30 0 -80 -7 -110 -14z m-818 -427
c143 -75 210 -250 158 -419 -18 -60 -30 -81 -74 -125 -79 -78 -144 -99 -227
-73 -106 33 -154 87 -195 219 -17 55 -18 95 -3 157 30 128 67 184 153 233 64
37 127 40 188 8z m582 -547 c45 -20 82 -64 113 -135 26 -59 5 -180 -42 -242
-32 -42 -92 -74 -138 -74 -54 0 -156 81 -157 125 0 11 -7 29 -15 39 -9 12 -15
42 -15 72 0 90 60 184 140 218 46 20 60 20 114 -3z m3252 -662 c18 -20 19 -39
17 -311 -1 -208 -5 -293 -13 -304 -9 -10 -34 -14 -89 -14 -42 0 -113 -4 -159
-10 -46 -5 -179 -12 -295 -15 -117 -4 -255 -11 -307 -16 -52 -6 -133 -14 -180
-19 -47 -5 -105 -13 -130 -18 -25 -6 -76 -12 -115 -14 l-70 -3 -3 333 -2 332
32 0 c17 0 81 7 142 15 203 26 328 36 611 45 154 5 303 11 330 13 28 2 86 4
131 5 71 2 83 -1 100 -19z m682 -25 c70 -15 147 -30 172 -34 45 -8 86 -21 148
-46 18 -8 41 -14 50 -14 10 0 27 -7 38 -15 10 -8 27 -15 37 -15 11 0 31 -6 45
-14 15 -7 61 -30 102 -50 41 -20 84 -42 95 -49 108 -65 203 -162 255 -259 31
-57 33 -69 33 -151 0 -63 -6 -100 -19 -130 -19 -45 -67 -111 -99 -139 -31 -26
-89 -22 -138 9 -90 58 -256 129 -387 166 -170 48 -223 59 -360 78 -81 10 -166
34 -186 50 -13 11 -15 54 -12 309 2 233 6 300 17 313 19 23 60 21 209 -9z
m-2478 -454 c0 -372 6 -343 -81 -356 -24 -3 -59 -10 -77 -16 -18 -5 -56 -14
-85 -18 -29 -5 -104 -23 -167 -41 -63 -17 -140 -37 -172 -44 -31 -7 -61 -16
-67 -19 -6 -4 -32 -11 -59 -15 -43 -8 -134 -32 -257 -68 -27 -8 -70 -18 -95
-23 -25 -4 -70 -18 -100 -30 -30 -12 -71 -26 -90 -30 -53 -13 -132 -37 -163
-49 -38 -15 -53 -14 -71 5 -14 13 -16 60 -16 354 l0 339 29 20 c16 12 37 21
48 21 10 0 59 12 108 26 50 14 108 29 130 33 23 4 46 10 52 14 7 4 31 11 55
16 24 5 77 18 118 29 41 11 95 23 120 27 63 9 178 35 220 50 39 14 128 33 205
45 48 7 66 11 200 43 33 8 95 16 138 16 l77 1 0 -330z m-1941 -218 c18 -130
16 -533 -4 -592 -19 -58 -77 -95 -185 -119 -19 -5 -46 -13 -60 -19 -14 -5 -52
-18 -85 -27 -53 -16 -82 -25 -200 -64 -16 -5 -55 -17 -85 -25 -30 -9 -98 -29
-150 -44 -52 -16 -122 -37 -155 -46 -33 -9 -73 -21 -90 -27 -16 -6 -41 -13
-55 -16 -14 -2 -34 -9 -45 -13 -52 -24 -115 -43 -170 -51 -52 -8 -62 -7 -73 8
-11 14 -13 91 -10 370 3 349 3 353 25 375 22 21 73 40 158 57 22 5 54 13 70
19 17 5 55 17 85 25 87 25 261 79 303 93 20 8 46 14 58 14 11 0 61 13 112 29
51 17 121 37 157 47 90 23 159 44 198 60 18 8 43 14 55 14 12 0 42 6 67 14 25
7 50 12 56 9 5 -2 16 -43 23 -91z"/>
<path d="M2971 3357 c-14 -6 -34 -27 -45 -46 -52 -90 63 -221 132 -148 27 29
36 67 27 123 -5 36 -13 49 -38 65 -37 22 -44 23 -76 6z"/>
<path d="M3176 3229 c-3 -17 -6 -48 -6 -69 0 -31 -8 -47 -45 -88 -37 -41 -53
-51 -92 -58 -56 -11 -72 -39 -28 -50 63 -16 189 85 200 160 14 90 -13 186 -29
105z"/>
<path d="M3549 2851 c-26 -27 -30 -37 -25 -63 10 -53 51 -83 95 -71 24 6 61
61 61 89 -1 29 -35 63 -69 70 -25 5 -36 1 -62 -25z"/>
<path d="M3735 2803 c-12 -74 -16 -84 -50 -122 -37 -40 -36 -51 2 -51 15 0 33
13 53 42 26 35 30 50 30 105 0 48 -3 63 -15 63 -9 0 -16 -14 -20 -37z"/>
<path d="M6967 3913 c-41 -41 76 -225 254 -400 163 -160 232 -198 309 -173 51
17 103 69 120 120 11 34 11 44 -5 77 -17 36 -146 173 -163 173 -5 0 -46 20
-92 45 -46 25 -88 45 -93 45 -6 0 -18 6 -26 13 -9 7 -62 34 -119 60 -95 44
-166 59 -185 40z"/>
</g>
</svg>
